<?xml version="1.0" encoding="utf-8"?>
<svg viewBox="0 0 500 500" xmlns="http://www.w3.org/2000/svg">
  <path d="M 474.992 94.117 C 492.409 94.117 503.226 108.291 499.135 125.742 L 441.137 374.787 C 437.044 392.177 419.619 406.366 402.205 406.366 L 25.824 406.366 C 8.457 406.366 -2.385 392.177 1.672 374.787 L 59.704 125.742 C 63.761 108.291 81.165 94.117 98.579 94.117 Z M 318.608 248.912 C 319.069 246.657 321.812 233.301 321.835 233.301 C 321.835 233.301 324.17 223.502 324.314 223.147 C 324.314 223.147 325.049 222.127 325.783 221.723 L 326.864 221.723 C 337.065 221.723 348.585 221.723 357.612 215.081 C 363.756 210.525 367.956 203.799 369.829 195.624 C 370.316 193.619 370.673 191.236 370.673 188.853 C 370.673 185.721 370.046 182.623 368.23 180.203 C 363.625 173.762 354.457 173.643 343.873 173.594 C 343.84 173.594 338.657 173.643 338.657 173.643 C 325.109 173.811 319.677 173.762 317.444 173.488 C 317.256 174.475 316.901 176.231 316.901 176.231 C 316.901 176.231 312.048 198.722 312.048 198.757 C 312.048 198.757 300.434 246.575 299.887 248.83 C 311.716 248.687 316.567 248.687 318.608 248.912 Z M 327.6 208.958 C 327.6 208.958 332.759 186.514 332.734 186.598 L 332.902 185.448 L 332.974 184.571 L 335.037 184.782 C 335.037 184.782 345.678 185.696 345.926 185.721 C 350.126 187.345 351.857 191.533 350.65 196.999 C 349.546 201.996 346.307 206.196 342.142 208.224 C 338.714 209.943 334.514 210.086 330.187 210.086 L 327.387 210.086 Z M 359.724 228.308 C 358.36 234.12 356.794 244.737 366.509 248.521 C 369.607 249.838 372.383 250.23 375.204 250.088 C 378.183 249.928 380.943 248.433 383.5 246.282 C 383.27 247.165 383.039 248.05 382.807 248.937 L 383.248 249.504 C 390.236 249.211 392.404 249.211 399.974 249.267 L 400.662 248.746 C 401.766 242.246 402.809 235.937 405.681 223.502 C 407.081 217.548 408.478 211.65 409.914 205.719 L 409.689 205.067 C 401.873 206.515 399.783 206.825 392.264 207.89 L 391.693 208.355 C 391.617 208.96 391.539 209.541 391.465 210.121 C 390.297 208.232 388.601 206.618 385.987 205.614 C 382.643 204.297 374.789 205.993 368.04 212.139 C 363.295 216.528 361.017 222.541 359.724 228.308 Z M 376.141 228.664 C 377.816 221.498 379.738 215.438 384.717 215.438 C 387.866 215.438 389.525 218.343 389.187 223.299 C 388.921 224.536 388.632 225.839 388.288 227.312 C 387.79 229.441 387.251 231.551 386.726 233.665 C 386.19 235.11 385.567 236.474 384.885 237.382 C 383.604 239.197 380.554 240.324 378.798 240.324 C 378.3 240.324 375.227 240.324 375.122 235.794 C 375.096 233.538 375.561 231.213 376.141 228.664 Z M 461.874 205.008 L 461.27 204.319 C 453.534 205.885 452.133 206.136 445.028 207.095 L 444.505 207.616 C 444.481 207.702 444.46 207.833 444.423 207.95 L 444.399 207.833 C 439.109 220.039 439.264 217.405 434.958 227.013 C 434.933 226.575 434.933 226.304 434.909 225.839 L 433.831 205.008 L 433.155 204.319 C 425.052 205.885 424.86 206.136 417.378 207.095 L 416.794 207.616 C 416.712 207.866 416.712 208.14 416.663 208.437 L 416.712 208.544 C 417.648 213.323 417.423 212.258 418.361 219.8 C 418.798 223.502 419.383 227.226 419.818 230.883 C 420.557 237.001 420.971 240.014 421.871 249.353 C 416.82 257.691 415.622 260.848 410.758 268.166 L 410.791 268.238 L 407.365 273.657 C 406.974 274.228 406.618 274.618 406.12 274.786 C 405.573 275.056 404.862 275.105 403.876 275.105 L 401.977 275.105 L 399.156 284.489 L 408.836 284.655 C 414.516 284.632 418.087 281.975 420.01 278.402 L 426.097 267.974 L 425.999 267.974 L 426.64 267.24 C 430.735 258.427 461.874 205.008 461.874 205.008 Z M 359.724 328.252 L 355.618 328.252 L 370.814 277.988 L 375.856 277.988 L 377.456 272.811 L 377.61 278.568 C 377.423 282.128 380.222 285.283 387.577 284.761 L 396.085 284.761 L 399.011 275.083 L 395.811 275.083 C 393.971 275.083 393.117 274.618 393.223 273.622 L 393.069 267.763 L 377.317 267.763 L 377.317 267.795 C 372.225 267.9 357.014 268.283 353.936 269.103 C 350.21 270.063 346.284 272.887 346.284 272.887 L 347.825 267.703 L 333.092 267.703 L 330.021 277.988 L 314.621 329.02 L 311.632 329.02 L 308.702 338.629 L 338.05 338.629 L 337.067 341.833 L 351.527 341.833 L 352.488 338.629 L 356.544 338.629 Z M 347.682 288.201 C 345.323 288.854 340.933 290.834 340.933 290.834 L 344.838 277.988 L 356.544 277.988 L 353.721 287.347 C 353.721 287.347 350.103 287.56 347.682 288.201 Z M 347.907 306.553 C 347.907 306.553 344.231 307.016 341.81 307.561 C 339.425 308.283 334.955 310.561 334.955 310.561 L 338.989 297.193 L 350.755 297.193 Z M 341.347 328.37 L 329.604 328.37 L 333.009 317.088 L 344.715 317.088 Z M 369.628 297.193 L 386.556 297.193 L 384.123 305.072 L 366.971 305.072 L 364.397 313.683 L 379.406 313.683 L 368.04 329.684 C 367.245 330.86 366.532 331.276 365.739 331.607 C 364.944 332.011 363.899 332.486 362.689 332.486 L 358.526 332.486 L 355.666 341.917 L 366.555 341.917 C 372.217 341.917 375.559 339.342 378.028 335.963 L 385.821 325.297 L 387.495 336.127 C 387.851 338.155 389.308 339.342 390.295 339.803 C 391.385 340.35 392.512 341.288 394.104 341.429 C 395.809 341.501 397.042 341.56 397.863 341.56 L 403.213 341.56 L 406.427 331.003 L 404.315 331.003 C 403.104 331.003 401.018 330.8 400.662 330.421 C 400.306 329.958 400.306 329.249 400.117 328.166 L 398.419 317.313 L 391.467 317.313 L 394.516 313.683 L 411.635 313.683 L 414.268 305.072 L 398.419 305.072 L 400.887 297.193 L 416.689 297.193 L 419.619 287.478 L 372.512 287.478 Z M 284.468 269.981 C 281.395 271.239 277.004 274.749 277.004 274.749 L 279.032 267.761 L 265.154 267.761 L 245.724 332.2 C 245.034 334.703 244.573 336.518 244.466 337.61 C 244.431 338.784 245.949 339.948 246.933 340.825 C 248.096 341.702 249.815 341.56 251.464 341.702 C 253.198 341.833 255.664 341.915 259.069 341.915 L 269.733 341.915 L 273.007 330.86 L 263.46 331.763 C 262.438 331.763 261.7 331.216 261.393 330.755 C 261.014 330.208 261.288 329.245 261.868 327.24 L 267.953 307.098 L 289.604 307.098 C 292.759 307.053 295.037 307.016 296.518 306.91 C 298.11 306.742 299.841 306.174 301.726 305.154 C 303.673 304.085 304.67 302.958 305.51 301.665 C 306.449 300.374 307.956 297.549 309.249 293.194 L 316.899 267.703 L 294.431 267.834 C 294.431 267.834 287.514 268.853 284.468 269.981 Z M 288.709 283.778 C 288.391 281.846 288.047 279.99 287.69 278.297 L 299.368 278.297 L 297.717 283.753 C 297.717 283.753 292.476 283.702 288.709 283.778 Z M 162.922 204.379 C 160.668 204.379 156.55 204.926 152.852 206.739 C 151.509 207.429 150.24 208.224 148.9 209.017 L 150.109 204.653 L 149.447 203.918 C 141.603 205.507 139.847 205.719 132.601 206.739 L 131.994 207.144 C 131.154 214.12 130.406 219.363 127.288 233.075 C 126.1 238.128 124.867 243.231 123.631 248.271 L 123.965 248.912 C 131.39 248.521 133.643 248.521 140.097 248.627 L 140.619 248.058 C 141.439 243.858 141.545 242.875 143.361 234.368 C 144.215 230.336 145.995 221.475 146.872 218.32 C 148.483 217.571 150.076 216.837 151.593 216.837 C 155.211 216.837 154.77 219.992 154.631 221.25 C 154.475 223.36 153.158 230.254 151.806 236.173 L 150.904 239.992 C 150.277 242.815 149.587 245.556 148.958 248.353 L 149.232 248.912 C 156.55 248.521 158.782 248.521 165.032 248.627 L 165.766 248.058 C 166.897 241.5 167.228 239.744 169.232 230.193 L 170.24 225.806 C 172.199 217.216 173.184 212.862 171.701 209.314 C 170.134 205.339 166.374 204.379 162.922 204.379 Z M 198.451 213.371 C 194.559 214.12 192.078 214.616 189.613 214.938 C 187.169 215.331 184.784 215.686 181.025 216.208 L 180.726 216.477 L 180.453 216.694 C 180.062 219.494 179.789 221.914 179.269 224.76 C 178.83 227.702 178.152 231.047 177.05 235.851 C 176.196 239.527 175.757 240.809 175.27 242.104 C 174.795 243.397 174.274 244.655 173.315 248.271 L 173.539 248.605 L 173.727 248.912 C 177.241 248.746 179.541 248.627 181.902 248.605 C 184.262 248.521 186.706 248.605 190.49 248.627 L 190.822 248.357 L 191.178 248.058 C 191.723 244.798 191.805 243.919 192.139 242.328 C 192.471 240.621 193.041 238.259 194.442 231.947 C 195.104 228.984 195.841 226.028 196.528 223.004 C 197.241 219.992 197.988 217.024 198.699 214.061 L 198.593 213.703 Z M 198.533 201.248 C 194.999 199.161 188.794 199.824 184.618 202.705 C 180.455 205.53 179.98 209.539 183.504 211.652 C 186.978 213.68 193.206 213.076 197.345 210.17 C 201.5 207.284 202.02 203.313 198.533 201.248 Z M 219.91 249.566 C 227.062 249.566 234.394 247.595 239.912 241.746 C 244.157 237.003 246.103 229.945 246.779 227.038 C 248.973 217.405 247.263 212.908 245.117 210.17 C 241.856 205.993 236.091 204.653 230.111 204.653 C 226.517 204.653 217.953 205.008 211.262 211.178 C 206.458 215.626 204.237 221.664 202.899 227.45 C 201.547 233.348 199.992 243.966 209.756 247.918 C 212.768 249.211 217.111 249.566 219.91 249.566 Z M 219.351 227.892 C 221 220.597 222.948 214.475 227.916 214.475 C 231.809 214.475 232.092 219.031 230.362 226.349 C 230.051 227.974 228.631 234.014 226.706 236.587 C 225.364 238.484 223.776 239.635 222.022 239.635 C 221.498 239.635 218.392 239.635 218.343 235.022 C 218.32 232.744 218.785 230.418 219.351 227.892 Z M 264.656 248.629 L 265.214 248.06 C 266.007 243.86 266.138 242.874 267.893 234.37 C 268.772 230.336 270.587 221.475 271.44 218.32 C 273.056 217.57 274.621 216.835 276.187 216.835 C 279.78 216.835 279.342 219.99 279.2 221.248 C 279.069 223.362 277.75 230.252 276.375 236.171 L 275.521 239.99 C 274.869 242.815 274.158 245.554 273.531 248.355 L 273.802 248.914 C 281.145 248.521 283.292 248.521 289.579 248.629 L 290.339 248.06 C 291.44 241.496 291.739 239.742 293.804 230.193 L 294.787 225.804 C 296.756 217.214 297.752 212.863 296.293 209.316 C 294.681 205.34 290.897 204.381 287.492 204.381 C 285.236 204.381 281.098 204.924 277.42 206.741 C 276.105 207.429 274.787 208.222 273.493 209.019 L 274.621 204.655 L 274.015 203.916 C 266.174 205.507 264.382 205.719 257.146 206.741 L 256.59 207.144 C 255.712 214.12 254.999 219.361 251.88 233.077 C 250.692 238.128 249.459 243.231 248.227 248.273 L 248.557 248.914 C 255.996 248.521 258.215 248.521 264.656 248.629 Z M 226.66 330.563 L 230.61 317.42 L 246.849 317.42 L 249.815 307.645 L 233.561 307.645 L 236.042 299.555 L 251.926 299.555 L 254.868 290.088 L 215.128 290.088 L 212.247 299.555 L 221.276 299.555 L 218.867 307.645 L 209.814 307.645 L 206.814 317.588 L 215.839 317.588 L 210.572 334.976 C 209.863 337.278 210.906 338.155 211.569 339.225 C 212.247 340.266 212.932 340.956 214.475 341.347 C 216.068 341.702 217.158 341.915 218.638 341.915 L 236.945 341.915 L 240.207 331.085 L 232.092 332.2 C 230.526 332.2 226.185 332.013 226.66 330.563 Z M 228.521 267.644 L 224.407 275.081 C 223.526 276.705 222.733 277.715 222.02 278.178 C 221.391 278.57 220.147 278.734 218.341 278.734 L 216.195 278.734 L 213.325 288.248 L 220.455 288.248 C 223.886 288.248 226.517 286.992 227.775 286.363 C 229.127 285.64 229.482 286.052 230.526 285.044 L 232.934 282.958 L 255.201 282.958 L 258.156 273.052 L 241.856 273.052 L 244.702 267.644 Z M 276.435 278.297 C 276.435 278.297 286.91 283.647 285.179 283.966 C 277.563 285.285 273.112 289.354 273.112 289.354 Z M 271.88 293.493 L 290.016 293.493 C 290.182 295.08 290.315 296.615 290.411 298.045 C 290.333 298.053 290.253 298.063 290.171 298.072 L 270.481 298.072 Z M 293.683 313.196 C 293.496 313.874 293.199 314.287 292.782 314.597 C 292.32 314.894 291.573 315 290.458 315 L 287.219 315 L 287.41 309.483 L 273.933 309.483 L 273.386 336.459 C 273.364 338.405 273.552 339.532 274.976 340.434 C 276.4 341.56 280.79 341.704 286.695 341.704 L 295.142 341.704 L 298.19 331.607 L 290.839 332.009 L 288.393 332.152 C 288.059 332.009 287.74 331.88 287.385 331.524 C 287.076 331.218 286.553 331.405 286.639 329.46 L 286.695 322.544 L 294.406 322.226 C 298.571 322.226 300.35 320.87 301.868 319.581 C 303.316 318.344 303.791 316.922 304.338 315 L 305.631 308.877 L 295.035 308.877 Z M 131.117 173.928 C 118.305 174.059 114.521 173.928 113.312 173.643 C 112.847 175.85 104.201 215.733 104.178 215.766 C 102.316 223.836 100.962 229.588 96.36 233.301 C 93.75 235.46 90.7 236.503 87.164 236.503 C 81.483 236.503 78.172 233.68 77.617 228.33 L 77.51 226.493 C 77.51 226.493 79.241 215.684 79.241 215.624 C 79.241 215.624 88.315 179.278 89.94 174.475 C 90.026 174.201 90.05 174.059 90.071 173.928 C 72.409 174.082 69.278 173.928 69.063 173.643 C 68.944 174.035 68.506 176.288 68.506 176.288 L 59.241 217.251 L 58.446 220.726 L 56.906 232.09 C 56.906 235.46 57.568 238.212 58.885 240.539 C 63.107 247.916 75.148 249.021 81.96 249.021 C 90.735 249.021 98.969 247.156 104.533 243.751 C 114.189 238.044 116.717 229.127 118.97 221.199 L 120.015 217.134 C 120.015 217.134 129.362 179.386 130.951 174.475 C 131.011 174.201 131.035 174.059 131.117 173.928 Z" style=""/>
</svg>